<svg xmlns="http://www.w3.org/2000/svg" width="109.857" height="116.069" viewBox="0 0 109.857 116.069"><defs><style>.a{fill:#fff;}</style></defs><g transform="translate(0 0)"><path class="a" d="M78.406,63.894a60.705,60.705,0,0,1,12.911-4.377,2.267,2.267,0,1,0-.939-4.436,65.9,65.9,0,0,0-14.9,5.183c-2.789-3.326-5.982-6.8-9.427-10.249-3.66-3.66-7.359-7.038-10.873-9.947a51.219,51.219,0,0,0,7.4-12.86A67.2,67.2,0,0,0,66.99,2.266a2.267,2.267,0,0,0-4.534,0c0,14.185-3.637,25.925-10.82,34.984-1.355-1.034-2.67-1.984-3.925-2.831-6.719-4.531-10.72-5.594-12.957-3.437l-.048.044-.007.006,0,0a3.73,3.73,0,0,0-1.06,2.1L.176,112.924a2.267,2.267,0,0,0,2.967,2.967l.006,0L82.934,82.431a3.724,3.724,0,0,0,1.943-.921c.039-.033.076-.068.113-.1.015-.014.03-.026.044-.041l.006-.007c.016-.015.03-.032.045-.048,2.156-2.237,1.094-6.238-3.437-12.956C80.69,66.936,79.6,65.441,78.406,63.894ZM17.98,99.918a15.252,15.252,0,0,1-2.031,5.687L6.5,109.567l9.6-22.882A25.188,25.188,0,0,1,17.98,99.918Zm13.95-7.671c-.914,5.21-3.338,7.722-4.028,8.345l-5.974,2.5c1.328-4.728,1.677-12.232-3.455-22.082l6.794-16.2C32.316,78.179,32.845,87.034,31.93,92.247Zm8.087,3.264-4.886,2.049A22.886,22.886,0,0,0,36.3,93.527c1.814-9.261-1.148-20.712-8.8-34.047l2.453-5.849a38.484,38.484,0,0,1,5.049,7.727,2.267,2.267,0,1,0,4.166-1.79,43.016,43.016,0,0,0-7.279-10.555l3.748-8.938c.657,1.2,1.47,2.523,2.445,3.969q1.007,1.493,2.2,3.089A42.636,42.636,0,0,1,46.349,78.98,46.035,46.035,0,0,1,40.017,95.512Zm17.468-7.325L46.722,92.7A57.142,57.142,0,0,0,50.8,79.821a49.292,49.292,0,0,0-.432-20.841q1.611,1.7,3.312,3.4c3.391,3.391,6.814,6.537,10.093,9.295C63.451,82.382,58.542,87.259,57.485,88.187ZM65.3,84.91a30.623,30.623,0,0,0,2.763-9.788c1.368,1.045,2.7,2,3.962,2.858,1.447.976,2.765,1.788,3.969,2.445Zm7.973-11.578A134.325,134.325,0,0,1,56.89,59.178,134.3,134.3,0,0,1,42.735,42.8c-3.377-4.766-4.287-7.2-4.526-8.254,1.054.24,3.488,1.15,8.254,4.526.707.5,1.433,1.036,2.173,1.6-.159.164-.316.329-.477.491a2.267,2.267,0,1,0,3.206,3.206q.427-.427.842-.865c3.439,2.843,7.075,6.161,10.639,9.725,3.065,3.065,5.946,6.182,8.5,9.182q-.614.341-1.228.695a2.267,2.267,0,1,0,2.267,3.926c.629-.364,1.259-.713,1.889-1.053.985,1.251,1.9,2.467,2.724,3.632,3.377,4.766,4.287,7.2,4.526,8.254C80.471,77.619,78.038,76.709,73.272,73.332Z" transform="translate(0 0.001)"/><path class="a" d="M371.168,112.405a2.267,2.267,0,0,0,3.206,0c5.065-5.065,13.271-7.386,19.263-7.87a2.267,2.267,0,1,0-.365-4.519c-6.795.548-16.169,3.249-22.1,9.183A2.267,2.267,0,0,0,371.168,112.405Z" transform="translate(-286.512 -77.337)"/><path class="a" d="M65.771,52.689h2.267v2.267a2.267,2.267,0,1,0,4.534,0V52.689h2.267a2.267,2.267,0,0,0,0-4.534H72.572V45.888a2.267,2.267,0,1,0-4.534,0v2.267H65.771a2.267,2.267,0,0,0,0,4.534Z" transform="translate(-49.108 -33.732)"/><path class="a" d="M407.836,402.152h-2.267v-2.267a2.267,2.267,0,1,0-4.534,0v2.267h-2.267a2.267,2.267,0,0,0,0,4.534h2.267v2.267a2.267,2.267,0,0,0,4.534,0v-2.267h2.267a2.267,2.267,0,0,0,0-4.534Z" transform="translate(-300.246 -325.172)"/><path class="a" d="M366.77,13.6a6.8,6.8,0,1,0-6.8-6.8A6.809,6.809,0,0,0,366.77,13.6Zm0-9.068A2.267,2.267,0,1,1,364.5,6.8,2.27,2.27,0,0,1,366.77,4.535Z" transform="translate(-278.365 -0.001)"/><path class="a" d="M429.3,173.619a6.8,6.8,0,1,0,6.8,6.8A6.809,6.809,0,0,0,429.3,173.619Zm0,9.068a2.267,2.267,0,1,1,2.267-2.267A2.27,2.27,0,0,1,429.3,182.687Z" transform="translate(-326.721 -134.26)"/><path class="a" d="M175.3,49.222a6.8,6.8,0,1,0-6.8-6.8A6.809,6.809,0,0,0,175.3,49.222Zm0-9.068a2.267,2.267,0,1,1-2.267,2.267A2.27,2.27,0,0,1,175.3,40.154Z" transform="translate(-130.304 -27.545)"/><path class="a" d="M433.724,286.325a2.267,2.267,0,1,0-2.267,2.267A2.271,2.271,0,0,0,433.724,286.325Z" transform="translate(-355.957 -242.31)"/></g></svg>