<svg xmlns="http://www.w3.org/2000/svg" width="108.909" height="123.709" viewBox="0 0 108.909 123.709"><defs><style>.a{fill:#fff;}</style></defs><g transform="matrix(0.914, -0.407, 0.407, 0.914, 0, 29.892)"><path class="a" d="M158.042,208.434a9.687,9.687,0,1,0-13.7,0A9.682,9.682,0,0,0,158.042,208.434Zm-6.85-10.065a3.215,3.215,0,1,1-2.273,5.488A3.213,3.213,0,0,1,151.192,198.369Z" transform="translate(-127.481 -153.08)"/><path class="a" d="M280.1,320.8a9.688,9.688,0,1,0,6.85,16.538A9.682,9.682,0,0,0,280.1,320.8Zm2.273,11.961a3.215,3.215,0,1,1,0-4.547A3.218,3.218,0,0,1,282.369,332.762Z" transform="translate(-230.313 -255.912)"/><path class="a" d="M207.271,226.659a3.236,3.236,0,0,0-4.577,0l-25.008,25.008a3.236,3.236,0,1,0,4.577,4.577l25.008-25.008A3.235,3.235,0,0,0,207.271,226.659Z" transform="translate(-155.587 -180.057)"/><path class="a" d="M139.719,19.338,116.679,2.522a13.036,13.036,0,0,0-15.4-.011L78.158,19.335a14.558,14.558,0,0,0-5.974,11.736V87.117a15.6,15.6,0,0,0,15.577,15.577H130.1a15.6,15.6,0,0,0,15.577-15.577V31.062a14.561,14.561,0,0,0-5.958-11.724Zm-.515,67.78a9.115,9.115,0,0,1-9.1,9.1H87.761a9.115,9.115,0,0,1-9.1-9.1V31.072a8.066,8.066,0,0,1,3.31-6.5L105.088,7.745a6.582,6.582,0,0,1,7.776.005L135.9,24.566a8.067,8.067,0,0,1,3.3,6.5Z" transform="translate(-72.184 0)"/><circle class="a" cx="3.414" cy="3.414" r="3.414" transform="translate(33.477 15.135)"/></g></svg>