<svg xmlns="http://www.w3.org/2000/svg" width="119.191" height="82.632" viewBox="0 0 119.191 82.632"><defs><style>.a{fill:#fff;}</style></defs><g transform="translate(74.995 52.584)"><path class="a" d="M337.175,304.4A15.024,15.024,0,1,0,352.2,319.427,15.041,15.041,0,0,0,337.175,304.4Zm0,22.536a7.512,7.512,0,1,1,7.512-7.512A7.52,7.52,0,0,1,337.175,326.939Z" transform="translate(-322.151 -304.403)"/></g><g transform="translate(23.663 52.584)"><path class="a" d="M116.671,304.4A15.024,15.024,0,1,0,131.7,319.427,15.041,15.041,0,0,0,116.671,304.4Zm0,22.536a7.512,7.512,0,1,1,7.512-7.512A7.52,7.52,0,0,1,116.671,326.939Z" transform="translate(-101.647 -304.403)"/></g><g transform="translate(76.998 7.512)"><path class="a" d="M353.894,112.858a3.758,3.758,0,0,0-3.357-2.068H330.756V118.3h17.465l10.228,20.342,6.713-3.376Z" transform="translate(-330.756 -110.79)"/></g><g transform="translate(50.331 63.977)"><rect class="a" width="28.42" height="7.512"/></g><g transform="translate(10.642 63.977)"><path class="a" d="M62.492,353.345H49.471a3.756,3.756,0,1,0,0,7.512H62.492a3.756,3.756,0,1,0,0-7.512Z" transform="translate(-45.715 -353.345)"/></g><g transform="translate(10.642)"><path class="a" d="M153.475,119.536l-7.388-9.515a3.751,3.751,0,0,0-2.966-1.452H115.827V82.277a3.756,3.756,0,0,0-3.756-3.756h-62.6a3.756,3.756,0,1,0,0,7.512h58.844v26.292a3.756,3.756,0,0,0,3.756,3.756h29.211l5.47,7.046V142.5H136.36a3.756,3.756,0,1,0,0,7.512h14.148a3.756,3.756,0,0,0,3.756-3.756V121.84A3.761,3.761,0,0,0,153.475,119.536Z" transform="translate(-45.715 -78.521)"/></g><g transform="translate(6.135 44.947)"><path class="a" d="M47.387,271.6H30.109a3.756,3.756,0,1,0,0,7.512H47.386a3.756,3.756,0,0,0,0-7.512Z" transform="translate(-26.353 -271.597)"/></g><g transform="translate(0 30.173)"><path class="a" d="M35.807,208.134H3.756a3.756,3.756,0,0,0,0,7.512H35.807a3.756,3.756,0,0,0,0-7.512Z" transform="translate(0 -208.134)"/></g><g transform="translate(6.135 15.4)"><path class="a" d="M62.16,144.672H30.109a3.756,3.756,0,0,0,0,7.512H62.16a3.756,3.756,0,0,0,0-7.512Z" transform="translate(-26.353 -144.672)"/></g></svg>